<svg width="24" height="24" viewBox="0 0 24 24" fill="none" xmlns="http://www.w3.org/2000/svg">
<path fill-rule="evenodd" clip-rule="evenodd" d="M12.2975 2C12.8351 2 13.3499 2.21637 13.7261 2.60032L17.4286 6.37928C17.7949 6.75311 18 7.25561 18 7.77896V8.28428C18 8.42196 17.9432 8.55355 17.8431 8.64801L16.0481 10.341C16.0079 10.3789 15.9446 10.377 15.9068 10.3368C15.8893 10.3183 15.8795 10.2937 15.8795 10.2682L15.8795 7.85896H13.7596C12.9312 7.85896 12.2596 7.18739 12.2596 6.35896V4.16429H5.18072C4.59517 4.16429 4.12048 4.64878 4.12048 5.24643V18.7536C4.12048 19.3512 4.59517 19.8357 5.18072 19.8357H14.8193C15.1695 19.8357 15.48 19.6624 15.6731 19.3953L15.7188 19.3266C15.7478 19.2793 16.4517 18.5915 17.8306 17.2632C17.8703 17.2248 17.9337 17.226 17.972 17.2658C17.99 17.2844 18 17.3093 18 17.3352V18.7536C18 20.5465 16.5759 22 14.8193 22H5.18072C3.42406 22 2 20.5465 2 18.7536V5.24643C2 3.45348 3.42406 2 5.18072 2H12.2975ZM19.1866 8.78414L19.2762 8.78698C19.5676 8.80555 19.8544 8.91485 20.0905 9.11491L20.1766 9.19419L21.5908 10.6084C22.1148 11.1324 22.1366 11.9683 21.6563 12.5182L21.5908 12.5883L15.7269 18.4523C15.4882 18.6909 15.1722 18.8345 14.8377 18.8587L14.7369 18.8623H11.9227V16.0481C11.9227 15.7105 12.0446 15.3856 12.264 15.132L12.3327 15.0581L18.1967 9.19419C18.4452 8.94567 18.7639 8.81012 19.089 8.78752L19.1866 8.78414ZM9.75904 16.0334C10.3446 16.0334 10.8193 16.5179 10.8193 17.1156C10.8193 17.7132 10.3446 18.1977 9.75904 18.1977H6.74096C6.15541 18.1977 5.68072 17.7132 5.68072 17.1156C5.68072 16.5179 6.15541 16.0334 6.74096 16.0334H9.75904ZM17.0647 12.8706L13.7225 16.2135V17.062H14.571L17.9132 13.7191L17.0647 12.8706ZM10.259 12.787C10.8446 12.787 11.3193 13.2715 11.3193 13.8692C11.3193 14.4668 10.8446 14.9513 10.259 14.9513H6.74096C6.15541 14.9513 5.68072 14.4668 5.68072 13.8692C5.68072 13.2715 6.15541 12.787 6.74096 12.787H10.259ZM19.1865 10.7495L18.338 11.598L19.1865 12.4465L20.035 11.598L19.1865 10.7495ZM13.259 9.54058C13.8446 9.54058 14.3193 10.0251 14.3193 10.6227C14.3193 11.2204 13.8446 11.7049 13.259 11.7049H6.74096C6.15541 11.7049 5.68072 11.2204 5.68072 10.6227C5.68072 10.0251 6.15541 9.54058 6.74096 9.54058H13.259Z" fill="#181E54"/>
</svg>
