<svg width="579" height="1024" viewBox="0 0 579 1024" fill="none" xmlns="http://www.w3.org/2000/svg">
<path d="M579 0L579 1028L8.4106e-07 1028L4.57764e-05 -2.53089e-05L579 0Z" fill="url(#paint0_linear_1829_39106)"/>
<mask id="mask0_1829_39106" style="mask-type:alpha" maskUnits="userSpaceOnUse" x="0" y="0" width="579" height="1028">
<path d="M579 0L579 1028L1.60998e-05 1028L4.55418e-05 354.446L579 0Z" fill="#F9F8FF"/>
</mask>
<g mask="url(#mask0_1829_39106)">
<ellipse cx="362.352" cy="364.137" rx="362.352" ry="364.137" transform="matrix(0.378353 0.925662 -0.927459 0.373926 672.089 3.31787)" fill="url(#paint1_linear_1829_39106)" fill-opacity="0.44" style="mix-blend-mode:multiply"/>
<ellipse cx="327.432" cy="301.215" rx="327.432" ry="301.215" transform="matrix(0.967338 0.253491 -0.272565 0.962138 -289.866 449.138)" fill="url(#paint2_linear_1829_39106)" fill-opacity="0.42" style="mix-blend-mode:multiply"/>
</g>
<defs>
<linearGradient id="paint0_linear_1829_39106" x1="579" y1="0" x2="112.544" y2="1076.75" gradientUnits="userSpaceOnUse">
<stop stop-color="#181E54"/>
<stop offset="1" stop-color="#EB1933"/>
</linearGradient>
<linearGradient id="paint1_linear_1829_39106" x1="362.352" y1="0" x2="362.352" y2="728.275" gradientUnits="userSpaceOnUse">
<stop stop-color="#EB1933"/>
<stop offset="1" stop-color="#FFF8F0" stop-opacity="0"/>
</linearGradient>
<linearGradient id="paint2_linear_1829_39106" x1="327.432" y1="0" x2="327.432" y2="602.43" gradientUnits="userSpaceOnUse">
<stop stop-color="#181E54"/>
<stop offset="1" stop-color="#FFF8F0" stop-opacity="0"/>
</linearGradient>
</defs>
</svg>
