<svg width="25" height="25" viewBox="0 0 25 25" fill="none" xmlns="http://www.w3.org/2000/svg">
<path fill-rule="evenodd" clip-rule="evenodd" d="M17.9364 2.84858C16.7943 2.72484 15.3547 2.72485 13.5182 2.72485H11.4277C9.59111 2.72485 8.15151 2.72484 7.00938 2.84858C5.84384 2.97486 4.89946 3.23718 4.09314 3.82301C3.60499 4.17766 3.17571 4.60694 2.82105 5.09509C2.65937 5.31763 2.52091 5.55266 2.40277 5.80282C2.04098 6.5689 1.87961 7.45722 1.80097 8.51654C1.7229 9.56808 1.7229 10.8571 1.7229 12.4464V12.5201C1.72289 14.3566 1.72289 15.7962 1.84663 16.9384C1.97291 18.1039 2.23522 19.0483 2.82105 19.8546C3.17571 20.3428 3.60499 20.772 4.09314 21.1267C4.89946 21.7125 5.84384 21.9748 7.00938 22.1011C8.15149 22.2249 9.59107 22.2249 11.4276 22.2249H13.5182C15.3547 22.2249 16.7943 22.2249 17.9364 22.1011C19.102 21.9748 20.0463 21.7125 20.8527 21.1267C21.3408 20.772 21.7701 20.3428 22.1247 19.8546C22.7106 19.0483 22.9729 18.1039 23.0992 16.9384C23.2229 15.7963 23.2229 14.3567 23.2229 12.5202V12.4458C23.2229 10.8456 23.2229 9.54971 23.1431 8.4939C23.0628 7.42991 22.8977 6.53864 22.5275 5.77031C22.4128 5.53219 22.2794 5.30789 22.1247 5.09509C21.7701 4.60694 21.3408 4.17766 20.8527 3.82301C20.0463 3.23718 19.102 2.97486 17.9364 2.84858ZM4.97481 5.03653C5.48282 4.66745 6.13303 4.45231 7.17095 4.33985C8.22289 4.22588 9.58133 4.22485 11.4729 4.22485H13.4729C15.3645 4.22485 16.7229 4.22588 17.7749 4.33985C18.8128 4.45231 19.463 4.66745 19.971 5.03653C20.3316 5.29854 20.6488 5.61566 20.9108 5.97625L19.0136 7.87346C17.332 9.55512 16.123 10.7619 15.0801 11.5575C14.0546 12.34 13.2785 12.6538 12.4729 12.6538C11.6673 12.6538 10.8912 12.34 9.86565 11.5575C8.82284 10.7619 7.61382 9.55512 5.93216 7.87346L4.03496 5.97625C4.29702 5.61566 4.61418 5.29854 4.97481 5.03653ZM21.5102 7.49823C21.5706 7.81846 21.6154 8.18376 21.6474 8.6069C21.7224 9.59978 21.7229 10.8397 21.7229 12.4749C21.7229 14.3664 21.7219 15.7249 21.6079 16.7768C21.4954 17.8147 21.2803 18.4649 20.9112 18.9729C20.6491 19.3337 20.3318 19.651 19.971 19.9132C19.463 20.2823 18.8128 20.4974 17.7749 20.6099C16.7229 20.7238 15.3645 20.7249 13.4729 20.7249H11.4729C9.58133 20.7249 8.22289 20.7238 7.17095 20.6099C6.13303 20.4974 5.48282 20.2823 4.97481 19.9132C4.61401 19.651 4.29672 19.3337 4.03458 18.9729C3.66549 18.4649 3.45035 17.8147 3.3379 16.7768C3.22393 15.7249 3.2229 14.3664 3.2229 12.4749C3.2229 10.8513 3.22337 9.61729 3.29685 8.62759C3.32891 8.1957 3.37421 7.82371 3.43561 7.49823L4.91207 8.97468C6.54434 10.607 7.82352 11.8862 8.95578 12.7501C10.1147 13.6343 11.2074 14.1538 12.4729 14.1538C13.7384 14.1538 14.8311 13.6343 15.99 12.7501C17.1223 11.8862 18.4014 10.607 20.0337 8.97471L21.5102 7.49823Z" fill="#181E54"/>
</svg>
