<svg width="20" height="20" viewBox="0 0 20 20" fill="none" xmlns="http://www.w3.org/2000/svg">
<path fill-rule="evenodd" clip-rule="evenodd" d="M10.2975 0C10.8351 0 11.3499 0.216367 11.7261 0.600318L15.4286 4.37928C15.7949 4.75311 16 5.25561 16 5.77896V6.28428C16 6.42196 15.9432 6.55355 15.8431 6.64801L14.0481 8.34097C14.0079 8.37886 13.9446 8.37701 13.9068 8.33683C13.8893 8.31827 13.8795 8.29373 13.8795 8.26822L13.8795 5.85896H11.7596C10.9312 5.85896 10.2596 5.18739 10.2596 4.35896V2.16429H3.18072C2.59517 2.16429 2.12048 2.64878 2.12048 3.24643V16.7536C2.12048 17.3512 2.59517 17.8357 3.18072 17.8357H12.8193C13.1695 17.8357 13.48 17.6624 13.6731 17.3953L13.7188 17.3266C13.7478 17.2793 14.4517 16.5915 15.8306 15.2632C15.8703 15.2248 15.9337 15.226 15.972 15.2658C15.99 15.2844 16 15.3093 16 15.3352V16.7536C16 18.5465 14.5759 20 12.8193 20H3.18072C1.42406 20 0 18.5465 0 16.7536V3.24643C0 1.45348 1.42406 0 3.18072 0H10.2975ZM17.1866 6.78414L17.2762 6.78698C17.5676 6.80555 17.8544 6.91485 18.0905 7.11491L18.1766 7.19419L19.5908 8.6084C20.1148 9.13235 20.1366 9.96829 19.6563 10.5182L19.5908 10.5883L13.7269 16.4523C13.4882 16.6909 13.1722 16.8345 12.8377 16.8587L12.7369 16.8623H9.92269V14.0481C9.92269 13.7105 10.0446 13.3856 10.264 13.132L10.3327 13.0581L16.1967 7.19419C16.4452 6.94567 16.7639 6.81012 17.089 6.78752L17.1866 6.78414ZM7.75904 14.0334C8.34459 14.0334 8.81928 14.5179 8.81928 15.1156C8.81928 15.7132 8.34459 16.1977 7.75904 16.1977H4.74096C4.15541 16.1977 3.68072 15.7132 3.68072 15.1156C3.68072 14.5179 4.15541 14.0334 4.74096 14.0334H7.75904ZM15.0647 10.8706L11.7225 14.2135V15.062H12.571L15.9132 11.7191L15.0647 10.8706ZM8.25904 10.787C8.84459 10.787 9.31928 11.2715 9.31928 11.8692C9.31928 12.4668 8.84459 12.9513 8.25904 12.9513H4.74096C4.15541 12.9513 3.68072 12.4668 3.68072 11.8692C3.68072 11.2715 4.15541 10.787 4.74096 10.787H8.25904ZM17.1865 8.7495L16.338 9.598L17.1865 10.4465L18.035 9.598L17.1865 8.7495ZM11.259 7.54058C11.8446 7.54058 12.3193 8.02507 12.3193 8.62272C12.3193 9.22038 11.8446 9.70487 11.259 9.70487H4.74096C4.15541 9.70487 3.68072 9.22038 3.68072 8.62272C3.68072 8.02507 4.15541 7.54058 4.74096 7.54058H11.259Z" fill="white"/>
</svg>
