<svg width="50" height="50" viewBox="0 0 50 50" fill="none" xmlns="http://www.w3.org/2000/svg">
<g clip-path="url(#clip0_2062_28203)">
<path d="M35.2283 13H14.7717C14.3018 13 13.8512 13.1867 13.5189 13.5189C13.1867 13.8512 13 14.3018 13 14.7717V35.2283C13 35.6982 13.1867 36.1488 13.5189 36.4811C13.8512 36.8133 14.3018 37 14.7717 37H35.2283C35.6982 37 36.1488 36.8133 36.4811 36.4811C36.8133 36.1488 37 35.6982 37 35.2283V14.7717C37 14.3018 36.8133 13.8512 36.4811 13.5189C36.1488 13.1867 35.6982 13 35.2283 13ZM20.1533 33.445H16.545V21.9833H20.1533V33.445ZM18.3467 20.395C17.9374 20.3927 17.5379 20.2692 17.1987 20.0401C16.8596 19.811 16.5958 19.4865 16.4409 19.1077C16.2859 18.7288 16.2466 18.3126 16.328 17.9115C16.4094 17.5103 16.6078 17.1423 16.8982 16.8538C17.1885 16.5653 17.5578 16.3693 17.9595 16.2905C18.3611 16.2117 18.7771 16.2536 19.155 16.411C19.5328 16.5684 19.8555 16.8342 20.0825 17.1748C20.3094 17.5155 20.4303 17.9157 20.43 18.325C20.4339 18.599 20.3825 18.871 20.279 19.1248C20.1755 19.3786 20.022 19.6089 19.8276 19.8021C19.6332 19.9952 19.4018 20.1473 19.1474 20.2492C18.893 20.351 18.6207 20.4006 18.3467 20.395ZM33.4533 33.455H29.8467V27.1933C29.8467 25.3467 29.0617 24.7767 28.0483 24.7767C26.9783 24.7767 25.9283 25.5833 25.9283 27.24V33.455H22.32V21.9917H25.79V23.58H25.8367C26.185 22.875 27.405 21.67 29.2667 21.67C31.28 21.67 33.455 22.865 33.455 26.365L33.4533 33.455Z" fill="#181E54"/>
</g>
<rect x="0.5" y="0.5" width="49" height="49" rx="24.5" stroke="#181E54"/>
<defs>
<clipPath id="clip0_2062_28203">
<rect width="24" height="24" fill="white" transform="translate(13 13)"/>
</clipPath>
</defs>
</svg>
