<svg width="25" height="25" viewBox="0 0 25 25" fill="none" xmlns="http://www.w3.org/2000/svg">
<path fill-rule="evenodd" clip-rule="evenodd" d="M12.4729 10.7249C10.9542 10.7249 9.72293 11.9561 9.72293 13.4749C9.72293 14.7336 10.5687 15.7949 11.7229 16.1213V19.4749C11.7229 19.8891 12.0587 20.2249 12.4729 20.2249C12.8871 20.2249 13.2229 19.8891 13.2229 19.4749V16.1213C14.3772 15.7949 15.2229 14.7336 15.2229 13.4749C15.2229 11.9561 13.9917 10.7249 12.4729 10.7249ZM11.2229 13.4749C11.2229 12.7845 11.7826 12.2249 12.4729 12.2249C13.1633 12.2249 13.7229 12.7845 13.7229 13.4749C13.7229 14.1652 13.1633 14.7249 12.4729 14.7249C11.7826 14.7249 11.2229 14.1652 11.2229 13.4749Z" fill="#181E54"/>
<path fill-rule="evenodd" clip-rule="evenodd" d="M12.4729 1.72485C9.2973 1.72485 6.72293 4.29922 6.72293 7.47485V7.99766L6.69609 8.00628C4.94557 8.57506 3.57314 9.94749 3.00436 11.698C2.72248 12.5655 2.72265 13.6067 2.72292 15.313V15.6367C2.72265 17.343 2.72248 18.3842 3.00436 19.2517C3.57314 21.0022 4.94557 22.3747 6.69609 22.9434C7.5636 23.2253 8.60481 23.2251 10.3111 23.2249H14.6348C16.3411 23.2251 17.3823 23.2253 18.2498 22.9434C20.0003 22.3747 21.3727 21.0022 21.9415 19.2517C22.2234 18.3842 22.2232 17.343 22.2229 15.6367V15.313C22.2232 13.6067 22.2234 12.5655 21.9415 11.698C21.3727 9.94749 20.0003 8.57506 18.2498 8.00628C17.3823 7.7244 16.3411 7.72457 14.6348 7.72484L10.389 7.72485C9.50978 7.72482 8.80804 7.72479 8.22293 7.75792V7.47485C8.22293 5.12764 10.1257 3.22485 12.4729 3.22485C13.4307 3.22485 14.3126 3.5408 15.0229 4.07447C15.3541 4.32328 15.8242 4.25652 16.073 3.92536C16.3218 3.5942 16.2551 3.12404 15.9239 2.87523C14.9628 2.15308 13.7668 1.72485 12.4729 1.72485ZM14.4729 9.22485C16.3926 9.22485 17.1745 9.23411 17.7863 9.43286C19.0801 9.85326 20.0945 10.8677 20.5149 12.1615C20.7137 12.7732 20.7229 13.5552 20.7229 15.4749C20.7229 17.3945 20.7137 18.1765 20.5149 18.7882C20.0945 20.082 19.0801 21.0964 17.7863 21.5168C17.1745 21.7156 16.3926 21.7249 14.4729 21.7249H10.4729C8.55328 21.7249 7.77132 21.7156 7.15961 21.5168C5.86575 21.0964 4.85134 20.082 4.43094 18.7882C4.23219 18.1765 4.22293 17.3945 4.22293 15.4749C4.22293 13.5552 4.23219 12.7732 4.43094 12.1615C4.85134 10.8677 5.86575 9.85326 7.15961 9.43286C7.28978 9.39057 7.43228 9.35599 7.59753 9.32815C8.19513 9.22747 9.00108 9.22485 10.4729 9.22485H14.4729Z" fill="#181E54"/>
</svg>
