<svg width="25" height="25" viewBox="0 0 25 25" fill="none" xmlns="http://www.w3.org/2000/svg">
<path d="M13.4629 3.72461C14.3238 3.72461 14.7048 3.72536 15.019 3.7535C18.5123 4.06626 21.2808 6.83478 21.5936 10.3281C21.6217 10.6423 21.6225 11.0233 21.6225 11.8842V12.8741C21.6225 13.2883 21.9583 13.6241 22.3725 13.6241C22.7867 13.6241 23.1225 13.2883 23.1225 12.8741V11.8337C23.1225 11.0368 23.1225 10.5839 23.0876 10.1943C22.7101 5.97826 19.3688 2.63695 15.1528 2.25947C14.7631 2.22459 14.3103 2.22459 13.5133 2.22461H12.473C12.0588 2.22461 11.723 2.5604 11.723 2.97461C11.723 3.38883 12.0588 3.72461 12.473 3.72461L13.4629 3.72461Z" fill="#2D264B"/>
<path fill-rule="evenodd" clip-rule="evenodd" d="M7.5847 4.99991C6.53261 4.03318 4.91546 4.03318 3.86337 4.99991C3.82029 5.0395 3.77429 5.0855 3.71457 5.14524L2.81706 6.04274C1.91395 6.94586 1.53483 8.24778 1.81189 9.49456C3.38386 16.5684 8.9084 22.093 15.9823 23.6649C17.229 23.942 18.531 23.5629 19.4341 22.6598L20.3315 21.7624C20.3913 21.7026 20.4373 21.6566 20.4769 21.6134C21.4436 20.5614 21.4436 18.9442 20.4769 17.8921C20.4373 17.849 20.3913 17.803 20.3315 17.7432L18.8622 16.274C17.8421 15.2539 16.3016 14.9621 14.9791 15.5386C14.222 15.8686 13.3401 15.7016 12.7561 15.1176L10.3593 12.7207C9.77526 12.1367 9.60823 11.2548 9.93825 10.4977C10.5147 9.17523 10.223 7.6347 9.20286 6.6146L7.73353 5.14526C7.67379 5.08551 7.62779 5.0395 7.5847 4.99991ZM4.87828 6.10443C5.3565 5.665 6.09157 5.665 6.56979 6.10443C6.5863 6.1196 6.60794 6.14099 6.68401 6.21706L8.1422 7.67526C8.7262 8.25926 8.89323 9.14121 8.56321 9.89831C7.98675 11.2208 8.2785 12.7613 9.2986 13.7814L11.6954 16.1782C12.7155 17.1983 14.256 17.4901 15.5785 16.9136C16.3356 16.5836 17.2176 16.7506 17.8016 17.3346L19.2598 18.7928C19.3358 18.8689 19.3572 18.8905 19.3724 18.907C19.8118 19.3852 19.8118 20.1203 19.3724 20.5985C19.3572 20.615 19.3358 20.6367 19.2598 20.7127L18.3734 21.5991C17.8329 22.1396 17.0538 22.3665 16.3077 22.2006C9.80233 20.755 4.7218 15.6745 3.27617 9.16916C3.11037 8.42302 3.33725 7.64388 3.87772 7.1034L4.76407 6.21706C4.84013 6.141 4.86177 6.1196 4.87828 6.10443Z" fill="#2D264B"/>
<path d="M13.18 5.76014C12.7658 5.76014 12.43 6.09593 12.43 6.51014C12.43 6.92436 12.7658 7.26014 13.18 7.26014H13.7457C13.7566 7.26014 13.7667 7.26014 13.776 7.26015C13.8417 7.26015 13.8723 7.26022 13.8977 7.26058C16.1973 7.29351 18.0535 9.14971 18.0864 11.4493C18.0868 11.4784 18.0868 11.5141 18.0868 11.6013V12.167C18.0868 12.5812 18.4226 12.917 18.8368 12.917C19.251 12.917 19.5868 12.5812 19.5868 12.167V11.5941C19.5868 11.5843 19.5868 11.5751 19.5868 11.5663C19.5868 11.5046 19.5868 11.4639 19.5862 11.4278C19.5417 8.31661 17.0304 5.80529 13.9192 5.76073C13.8779 5.76014 13.8306 5.76014 13.7529 5.76014H13.18Z" fill="#2D264B"/>
</svg>
