<svg width="96" height="92" viewBox="0 0 96 92" fill="none" xmlns="http://www.w3.org/2000/svg">
<g filter="url(#filter0_f_1834_37304)">
<rect x="24" y="24" width="48" height="44" rx="22" fill="#54577A"/>
</g>
<rect x="26" y="18" width="44" height="44" rx="22" fill="#141522" stroke="white" stroke-width="4"/>
<path d="M45.4545 43.8949V43.5568C45.4612 42.3968 45.5639 41.4721 45.7628 40.7827C45.9683 40.0933 46.2666 39.5365 46.6577 39.1122C47.0488 38.688 47.5194 38.3035 48.0696 37.9588C48.4806 37.6937 48.8485 37.4186 49.1733 37.1335C49.4981 36.8485 49.7566 36.5336 49.9489 36.1889C50.1411 35.8376 50.2372 35.4465 50.2372 35.0156C50.2372 34.5582 50.1278 34.1572 49.9091 33.8125C49.6903 33.4678 49.3954 33.2027 49.0241 33.017C48.6596 32.8314 48.2552 32.7386 47.8111 32.7386C47.3802 32.7386 46.9725 32.8348 46.5881 33.027C46.2036 33.2126 45.8887 33.491 45.6435 33.8622C45.3982 34.2268 45.2656 34.6809 45.2457 35.2244H41.1889C41.2221 33.8987 41.5402 32.8049 42.1435 31.9432C42.7467 31.0748 43.5455 30.4285 44.5398 30.0043C45.5341 29.5734 46.6312 29.358 47.831 29.358C49.1501 29.358 50.3168 29.5767 51.331 30.0142C52.3452 30.4451 53.1406 31.0715 53.7173 31.8935C54.294 32.7154 54.5824 33.7064 54.5824 34.8665C54.5824 35.642 54.4531 36.3314 54.1946 36.9347C53.9427 37.5312 53.5881 38.0616 53.1307 38.5256C52.6733 38.983 52.133 39.3973 51.5099 39.7685C50.9863 40.08 50.5554 40.4048 50.2173 40.7429C49.8859 41.081 49.6373 41.4721 49.4716 41.9162C49.3125 42.3603 49.2296 42.9072 49.223 43.5568V43.8949H45.4545ZM47.4233 50.2585C46.7604 50.2585 46.1937 50.0265 45.723 49.5625C45.259 49.0919 45.0303 48.5284 45.0369 47.8722C45.0303 47.2225 45.259 46.6657 45.723 46.2017C46.1937 45.7377 46.7604 45.5057 47.4233 45.5057C48.053 45.5057 48.6065 45.7377 49.0838 46.2017C49.5611 46.6657 49.803 47.2225 49.8097 47.8722C49.803 48.3097 49.687 48.7107 49.4616 49.0753C49.2429 49.4332 48.9545 49.7216 48.5966 49.9403C48.2386 50.1525 47.8475 50.2585 47.4233 50.2585Z" fill="white"/>
<defs>
<filter id="filter0_f_1834_37304" x="0" y="0" width="96" height="92" filterUnits="userSpaceOnUse" color-interpolation-filters="sRGB">
<feFlood flood-opacity="0" result="BackgroundImageFix"/>
<feBlend mode="normal" in="SourceGraphic" in2="BackgroundImageFix" result="shape"/>
<feGaussianBlur stdDeviation="12" result="effect1_foregroundBlur_1834_37304"/>
</filter>
</defs>
</svg>
