<svg width="100" height="26" viewBox="0 0 100 26" fill="none" xmlns="http://www.w3.org/2000/svg">
<path d="M13.5 19.3019L19.0094 17.9057L21.3113 25L13.5 19.3019ZM26.1792 10.1321H16.4811L13.5 1L10.5189 10.1321H0.82074L8.6698 15.7925L5.68866 24.9245L13.5377 19.2641L18.3679 15.7925L26.1792 10.1321Z" fill="#219653"/>
<path d="M36.0152 6.625V18H34.0699V6.625H36.0152ZM39.5855 6.625V8.1875H30.5308V6.625H39.5855ZM42.2261 11.1562V18H40.3433V9.54688H42.1402L42.2261 11.1562ZM44.812 9.49219L44.7964 11.2422C44.6818 11.2214 44.5568 11.2057 44.4214 11.1953C44.2912 11.1849 44.161 11.1797 44.0308 11.1797C43.7079 11.1797 43.424 11.2266 43.1792 11.3203C42.9344 11.4089 42.7287 11.5391 42.562 11.7109C42.4006 11.8776 42.2756 12.0807 42.187 12.3203C42.0985 12.5599 42.0464 12.8281 42.0308 13.125L41.6011 13.1562C41.6011 12.625 41.6532 12.1328 41.7574 11.6797C41.8615 11.2266 42.0178 10.8281 42.2261 10.4844C42.4396 10.1406 42.7053 9.8724 43.023 9.67969C43.3459 9.48698 43.7183 9.39062 44.1402 9.39062C44.2548 9.39062 44.3771 9.40104 44.5074 9.42188C44.6428 9.44271 44.7443 9.46615 44.812 9.49219ZM51.0777 16.0078V9.54688H52.9683V18H51.187L51.0777 16.0078ZM51.3433 14.25L51.9761 14.2344C51.9761 14.8021 51.9136 15.3255 51.7886 15.8047C51.6636 16.2786 51.4709 16.6927 51.2105 17.0469C50.9501 17.3958 50.6167 17.6693 50.2105 17.8672C49.8042 18.0599 49.3173 18.1562 48.7495 18.1562C48.3381 18.1562 47.9605 18.0964 47.6167 17.9766C47.273 17.8568 46.9761 17.6719 46.7261 17.4219C46.4813 17.1719 46.2912 16.8464 46.1558 16.4453C46.0204 16.0443 45.9527 15.5651 45.9527 15.0078V9.54688H47.8355V15.0234C47.8355 15.3307 47.8719 15.5885 47.9449 15.7969C48.0178 16 48.1167 16.1641 48.2417 16.2891C48.3667 16.4141 48.5126 16.5026 48.6792 16.5547C48.8459 16.6068 49.023 16.6328 49.2105 16.6328C49.7469 16.6328 50.1688 16.5286 50.4761 16.3203C50.7886 16.1068 51.01 15.8203 51.1402 15.4609C51.2756 15.1016 51.3433 14.6979 51.3433 14.25ZM59.6402 15.7109C59.6402 15.5234 59.5933 15.3542 59.4995 15.2031C59.4058 15.0469 59.2261 14.9062 58.9605 14.7812C58.7001 14.6562 58.3146 14.5417 57.8042 14.4375C57.3563 14.3385 56.9449 14.2214 56.5699 14.0859C56.2001 13.9453 55.8824 13.776 55.6167 13.5781C55.3511 13.3802 55.1454 13.1458 54.9995 12.875C54.8537 12.6042 54.7808 12.2917 54.7808 11.9375C54.7808 11.5938 54.8563 11.2682 55.0074 10.9609C55.1584 10.6536 55.3745 10.3828 55.6558 10.1484C55.937 9.91406 56.2782 9.72917 56.6792 9.59375C57.0855 9.45833 57.5386 9.39062 58.0386 9.39062C58.7469 9.39062 59.3537 9.51042 59.8589 9.75C60.3693 9.98438 60.76 10.3047 61.0308 10.7109C61.3016 11.112 61.437 11.5651 61.437 12.0703H59.5542C59.5542 11.8464 59.4969 11.638 59.3824 11.4453C59.273 11.2474 59.1063 11.0885 58.8824 10.9688C58.6584 10.8438 58.3771 10.7812 58.0386 10.7812C57.7157 10.7812 57.4475 10.8333 57.2339 10.9375C57.0256 11.0365 56.8693 11.1667 56.7652 11.3281C56.6662 11.4896 56.6167 11.6667 56.6167 11.8594C56.6167 12 56.6428 12.1276 56.6949 12.2422C56.7521 12.3516 56.8459 12.4531 56.9761 12.5469C57.1063 12.6354 57.2834 12.7188 57.5074 12.7969C57.7365 12.875 58.023 12.9505 58.3667 13.0234C59.0126 13.1589 59.5673 13.3333 60.0308 13.5469C60.4995 13.7552 60.8589 14.026 61.1089 14.3594C61.3589 14.6875 61.4839 15.1042 61.4839 15.6094C61.4839 15.9844 61.4032 16.3281 61.2417 16.6406C61.0855 16.9479 60.8563 17.2161 60.5542 17.4453C60.2521 17.6693 59.8902 17.8438 59.4683 17.9688C59.0516 18.0938 58.5829 18.1562 58.062 18.1562C57.2964 18.1562 56.648 18.0208 56.1167 17.75C55.5855 17.474 55.1818 17.1224 54.9058 16.6953C54.635 16.263 54.4995 15.8151 54.4995 15.3516H56.3199C56.3407 15.7005 56.437 15.9792 56.6089 16.1875C56.786 16.3906 57.0048 16.5391 57.2652 16.6328C57.5308 16.7214 57.8042 16.7656 58.0855 16.7656C58.424 16.7656 58.7079 16.7214 58.937 16.6328C59.1662 16.5391 59.3407 16.4141 59.4605 16.2578C59.5803 16.0964 59.6402 15.9141 59.6402 15.7109ZM67.0074 9.54688V10.9219H62.2417V9.54688H67.0074ZM63.6167 7.47656H65.4995V15.6641C65.4995 15.9245 65.536 16.125 65.6089 16.2656C65.687 16.401 65.7938 16.4922 65.9292 16.5391C66.0646 16.5859 66.2235 16.6094 66.4058 16.6094C66.536 16.6094 66.661 16.6016 66.7808 16.5859C66.9006 16.5703 66.9969 16.5547 67.0699 16.5391L67.0777 17.9766C66.9214 18.0234 66.7391 18.0651 66.5308 18.1016C66.3277 18.138 66.0933 18.1562 65.8277 18.1562C65.3954 18.1562 65.0126 18.0807 64.6792 17.9297C64.3459 17.7734 64.0855 17.5208 63.898 17.1719C63.7105 16.8229 63.6167 16.3594 63.6167 15.7812V7.47656ZM70.3511 11.1719V21.25H68.4683V9.54688H70.2027L70.3511 11.1719ZM75.8589 13.6953V13.8594C75.8589 14.474 75.786 15.0443 75.6402 15.5703C75.4995 16.0911 75.2886 16.5469 75.0074 16.9375C74.7313 17.3229 74.3902 17.6224 73.9839 17.8359C73.5777 18.0495 73.1089 18.1562 72.5777 18.1562C72.0516 18.1562 71.5907 18.0599 71.1949 17.8672C70.8042 17.6693 70.4735 17.3906 70.2027 17.0312C69.9318 16.6719 69.7131 16.25 69.5464 15.7656C69.385 15.276 69.2704 14.7396 69.2027 14.1562V13.5234C69.2704 12.9036 69.385 12.3411 69.5464 11.8359C69.7131 11.3307 69.9318 10.8958 70.2027 10.5312C70.4735 10.1667 70.8042 9.88542 71.1949 9.6875C71.5855 9.48958 72.0412 9.39062 72.562 9.39062C73.0933 9.39062 73.5646 9.49479 73.9761 9.70312C74.3876 9.90625 74.7339 10.1979 75.0152 10.5781C75.2964 10.9531 75.5074 11.4062 75.648 11.9375C75.7886 12.4635 75.8589 13.0495 75.8589 13.6953ZM73.9761 13.8594V13.6953C73.9761 13.3047 73.9396 12.9427 73.8667 12.6094C73.7938 12.2708 73.6792 11.974 73.523 11.7188C73.3667 11.4635 73.1662 11.2656 72.9214 11.125C72.6818 10.9792 72.3928 10.9062 72.0542 10.9062C71.7209 10.9062 71.4344 10.9635 71.1949 11.0781C70.9553 11.1875 70.7548 11.3411 70.5933 11.5391C70.4318 11.737 70.3068 11.9688 70.2183 12.2344C70.1298 12.4948 70.0673 12.7786 70.0308 13.0859V14.6016C70.0933 14.9766 70.2001 15.3203 70.3511 15.6328C70.5021 15.9453 70.7157 16.1953 70.9917 16.3828C71.273 16.5651 71.6324 16.6562 72.0699 16.6562C72.4084 16.6562 72.6975 16.5833 72.937 16.4375C73.1766 16.2917 73.3719 16.0911 73.523 15.8359C73.6792 15.5755 73.7938 15.276 73.8667 14.9375C73.9396 14.599 73.9761 14.2396 73.9761 13.8594ZM79.4761 9.54688V18H77.5855V9.54688H79.4761ZM77.4605 7.32812C77.4605 7.04167 77.5542 6.80469 77.7417 6.61719C77.9344 6.42448 78.2001 6.32812 78.5386 6.32812C78.8719 6.32812 79.135 6.42448 79.3277 6.61719C79.5204 6.80469 79.6167 7.04167 79.6167 7.32812C79.6167 7.60938 79.5204 7.84375 79.3277 8.03125C79.135 8.21875 78.8719 8.3125 78.5386 8.3125C78.2001 8.3125 77.9344 8.21875 77.7417 8.03125C77.5542 7.84375 77.4605 7.60938 77.4605 7.32812ZM83.5542 6V18H81.6636V6H83.5542ZM85.2574 13.8672V13.6875C85.2574 13.0781 85.3459 12.513 85.523 11.9922C85.7001 11.4661 85.9553 11.0104 86.2886 10.625C86.6271 10.2344 87.0386 9.93229 87.523 9.71875C88.0126 9.5 88.5646 9.39062 89.1792 9.39062C89.799 9.39062 90.3511 9.5 90.8355 9.71875C91.3251 9.93229 91.7391 10.2344 92.0777 10.625C92.4162 11.0104 92.674 11.4661 92.8511 11.9922C93.0282 12.513 93.1167 13.0781 93.1167 13.6875V13.8672C93.1167 14.4766 93.0282 15.0417 92.8511 15.5625C92.674 16.0833 92.4162 16.5391 92.0777 16.9297C91.7391 17.3151 91.3277 17.6172 90.8433 17.8359C90.3589 18.0495 89.8094 18.1562 89.1949 18.1562C88.5751 18.1562 88.0204 18.0495 87.5308 17.8359C87.0464 17.6172 86.635 17.3151 86.2964 16.9297C85.9579 16.5391 85.7001 16.0833 85.523 15.5625C85.3459 15.0417 85.2574 14.4766 85.2574 13.8672ZM87.1402 13.6875V13.8672C87.1402 14.2474 87.1792 14.6068 87.2574 14.9453C87.3355 15.2839 87.4579 15.5807 87.6245 15.8359C87.7912 16.0911 88.0048 16.2917 88.2652 16.4375C88.5256 16.5833 88.8355 16.6562 89.1949 16.6562C89.5438 16.6562 89.8459 16.5833 90.1011 16.4375C90.3615 16.2917 90.5751 16.0911 90.7417 15.8359C90.9084 15.5807 91.0308 15.2839 91.1089 14.9453C91.1923 14.6068 91.2339 14.2474 91.2339 13.8672V13.6875C91.2339 13.3125 91.1923 12.9583 91.1089 12.625C91.0308 12.2865 90.9058 11.987 90.7339 11.7266C90.5673 11.4661 90.3537 11.263 90.0933 11.1172C89.8381 10.9661 89.5334 10.8906 89.1792 10.8906C88.8251 10.8906 88.5178 10.9661 88.2574 11.1172C88.0021 11.263 87.7912 11.4661 87.6245 11.7266C87.4579 11.987 87.3355 12.2865 87.2574 12.625C87.1792 12.9583 87.1402 13.3125 87.1402 13.6875ZM98.5699 9.54688V10.9219H93.8042V9.54688H98.5699ZM95.1792 7.47656H97.062V15.6641C97.062 15.9245 97.0985 16.125 97.1714 16.2656C97.2495 16.401 97.3563 16.4922 97.4917 16.5391C97.6271 16.5859 97.786 16.6094 97.9683 16.6094C98.0985 16.6094 98.2235 16.6016 98.3433 16.5859C98.4631 16.5703 98.5594 16.5547 98.6324 16.5391L98.6402 17.9766C98.4839 18.0234 98.3016 18.0651 98.0933 18.1016C97.8902 18.138 97.6558 18.1562 97.3902 18.1562C96.9579 18.1562 96.5751 18.0807 96.2417 17.9297C95.9084 17.7734 95.648 17.5208 95.4605 17.1719C95.273 16.8229 95.1792 16.3594 95.1792 15.7812V7.47656Z" fill="white"/>
</svg>
