<svg width="5498" height="5498" viewBox="0 0 5498 5498" fill="none" xmlns="http://www.w3.org/2000/svg">
<path d="M2459.99 2900.28C2117.55 2401.51 1775.86 1903.87 1430.43 1400.99C1450.64 1400.06 1463.74 1398.75 1476.84 1398.75C1709.62 1398.75 1942.4 1399.12 2175.19 1398C2204.38 1398 2221.78 1406.23 2238.81 1430.94C2451.38 1742.55 2665.45 2053.04 2878.96 2363.9C2884.2 2371.57 2889.81 2379.24 2897.86 2390.85C2980.19 2295.02 3060.65 2201.45 3141.12 2107.87C3337.78 1879.17 3534.26 1650.47 3731.68 1422.33C3741.22 1411.29 3757.88 1400.25 3771.54 1399.68C3838.9 1397.44 3906.27 1398.56 3980.37 1398.56C3970.08 1412.22 3963.71 1421.96 3956.23 1430.56C3646.54 1790.83 3337.04 2151.29 3026.41 2510.81C3004.7 2535.89 3006.2 2551.42 3023.98 2577.06C3362.3 3067.78 3699.5 3559.24 4036.88 4050.52C4046.61 4064.74 4055.97 4079.15 4070 4100.3C4049.79 4100.3 4038 4100.3 4026.21 4100.3C3792.12 4100.3 3557.84 4099.74 3323.75 4100.86C3294 4100.86 3276.97 4091.32 3260.32 4066.8C3037.64 3740.59 2813.65 3415.13 2590.04 3089.49C2582.37 3078.26 2574.13 3067.22 2563.28 3052.06C2552.24 3064.41 2542.51 3075.08 2533.15 3085.93C2250.22 3414.76 1967.66 3743.96 1683.8 4071.85C1670.7 4086.83 1645.62 4097.87 1625.42 4098.99C1563.66 4102.55 1501.73 4100.3 1428 4100.3C1775.3 3696.24 2116.99 3298.72 2459.8 2900.09L2459.99 2900.28ZM1745.74 1573.74C1855.95 1731.51 1960.74 1881.42 2065.53 2031.33C2500.59 2654.17 2935.84 3276.83 3370.53 3900.05C3386.25 3922.51 3402.16 3933.73 3430.79 3932.24C3478.88 3929.8 3527.15 3931.49 3575.43 3931.49C3631.19 3931.49 3686.77 3931.49 3749.64 3931.49C3737.48 3913.15 3730.56 3901.73 3722.89 3890.69C3485.61 3551.01 3248.34 3211.51 3011.07 2872.02C2714.66 2447.74 2418.45 2023.46 2121.48 1599.56C2113.81 1588.52 2099.59 1574.86 2088.17 1574.67C1977.02 1572.8 1865.87 1573.55 1745.92 1573.55L1745.74 1573.74Z" fill="#181E54"/>
<path d="M2748.63 5443.27C4236.84 5443.27 5443.27 4236.84 5443.27 2748.63C5443.27 1260.43 4236.84 54 2748.63 54C1260.43 54 54 1260.43 54 2748.63C54 4236.84 1260.43 5443.27 2748.63 5443.27Z" stroke="#181E54" stroke-width="100" stroke-miterlimit="10"/>
</svg>
